<svg width="24" height="24" viewBox="0 0 24 24" fill="none" xmlns="http://www.w3.org/2000/svg">
<path fill-rule="evenodd" clip-rule="evenodd" d="M7 6C7 3.79086 8.79086 2 11 2H13C15.2091 2 17 3.79086 17 6V7.12602C17.367 7.22048 17.7137 7.36573 18.032 7.55382L19.7929 5.79289C20.1834 5.40237 20.8166 5.40237 21.2071 5.79289C21.5976 6.18342 21.5976 6.81658 21.2071 7.20711L19.4462 8.96803C19.7981 9.56355 20 10.2582 20 11V12H22C22.5523 12 23 12.4477 23 13C23 13.5523 22.5523 14 22 14H20C20 15.0621 19.793 16.0758 19.4173 17.003L21.2071 18.7929C21.5976 19.1834 21.5976 19.8166 21.2071 20.2071C20.8166 20.5976 20.1834 20.5976 19.7929 20.2071L18.3942 18.8084C16.9343 20.7468 14.6135 22 12 22C9.38649 22 7.06568 20.7468 5.60577 18.8084L4.20711 20.2071C3.81658 20.5976 3.18342 20.5976 2.79289 20.2071C2.40237 19.8166 2.40237 19.1834 2.79289 18.7929L4.58275 17.003C4.20696 16.0758 4 15.0621 4 14H2C1.44772 14 1 13.5523 1 13C1 12.4477 1.44772 12 2 12H4V11C4 10.2582 4.20193 9.56355 4.55382 8.96803L2.79289 7.20711C2.40237 6.81658 2.40237 6.18342 2.79289 5.79289C3.18342 5.40237 3.81658 5.40237 4.20711 5.79289L5.96803 7.55382C6.28634 7.36573 6.63298 7.22048 7 7.12602V6ZM9 7H15V6C15 4.89543 14.1046 4 13 4H11C9.89543 4 9 4.89543 9 6V7ZM6 14C6 16.973 8.16229 19.441 11 19.917V14C11 13.4477 11.4477 13 12 13C12.5523 13 13 13.4477 13 14V19.917C15.8377 19.441 18 16.973 18 14V11C18 9.89543 17.1046 9 16 9H8C6.89543 9 6 9.89543 6 11V14Z" fill="black"/>
</svg>
