<svg width="24" height="24" viewBox="0 0 24 24" fill="none" xmlns="http://www.w3.org/2000/svg">
<path d="M13.02 21.58C13.7962 21.852 14.6308 21.9999 15.5 21.9999C16.2857 21.9999 17.0451 21.8787 17.7593 21.6534C18.3084 21.4801 18.7821 21.4152 19.1923 21.4919L21.8161 21.9828C22.1404 22.0435 22.4738 21.9403 22.7071 21.707C22.9404 21.4737 23.0436 21.1403 22.983 20.816L22.492 18.1922C22.4153 17.7819 22.4802 17.3083 22.6535 16.7592C22.8789 16.045 23 15.2856 23 14.4999C23 12.4592 22.185 10.6088 20.8626 9.25656C20.953 9.82433 21 10.4066 21 10.9998C21 11.7022 20.9341 12.3893 20.8083 13.0551C20.9333 13.5155 21 13.9999 21 14.4999C21 15.0791 20.9108 15.6355 20.7462 16.1573C20.5271 16.8514 20.3632 17.6888 20.5262 18.56L20.7485 19.7484L19.5602 19.526C18.6889 19.363 17.8515 19.527 17.1574 19.7461C16.9239 19.8197 16.6835 19.8783 16.4372 19.9205C15.416 20.6588 14.2629 21.226 13.02 21.58Z" fill="black"/>
<path fill-rule="evenodd" clip-rule="evenodd" d="M10 2C5.02945 2 1.00001 6.02944 1.00001 11C1.00001 12.0348 1.17507 13.0309 1.49801 13.9589C1.67808 14.4764 1.74091 14.9474 1.66391 15.359L1.01707 18.8161C0.95639 19.1404 1.0596 19.4738 1.29291 19.7071C1.52622 19.9404 1.8596 20.0436 2.18393 19.9829L5.64105 19.3361C6.05259 19.2591 6.52366 19.3219 7.0411 19.502C7.9691 19.8249 8.96518 20 10 20C14.9706 20 19 15.9706 19 11C19 6.02944 14.9706 2 10 2Z" fill="black"/>
</svg>
