<svg width="24" height="24" viewBox="0 0 24 24" fill="none" xmlns="http://www.w3.org/2000/svg">
<path d="M12 3C11.4477 3 11 3.44772 11 4V10C11 10.6812 11.116 11.4784 11.269 12.2336L11.1258 12.3772C11.086 12.3316 11.0494 12.2819 11.0168 12.2281C10.5202 11.4097 9.89 10.4805 9.25784 9.84365L8.70711 9.29292C8.31658 8.90239 7.68342 8.90239 7.29289 9.29292C6.90449 9.68132 6.90238 10.3097 7.28656 10.7007L11.2929 14.7071C11.6323 15.0465 12.155 15.0909 12.5424 14.8404C12.6008 14.8026 12.656 14.7582 12.7071 14.7071L16.7071 10.7071C17.0976 10.3166 17.0976 9.68344 16.7071 9.29292C16.3175 8.90335 15.6865 8.90239 15.2958 9.29006L15.2929 9.29292L14.7574 9.82843C14.1202 10.4657 13.4839 11.4031 12.9834 12.228C12.9507 12.2819 12.9141 12.3316 12.8742 12.3773L12.731 12.2336C12.884 11.4784 13 10.6812 13 10V4C13 3.44772 12.5523 3 12 3Z" fill="black"/>
<path fill-rule="evenodd" clip-rule="evenodd" d="M20 13C20.5523 13 21 13.4477 21 14V17C21 19.2091 19.2091 21 17 21H7C4.79086 21 3 19.2091 3 17L3 14C3 13.4477 3.44772 13 4 13C4.55229 13 5 13.4477 5 14L5 17C5 18.1046 5.89543 19 7 19H17C18.1046 19 19 18.1046 19 17V14C19 13.4477 19.4477 13 20 13Z" fill="black"/>
</svg>
