<svg width="24" height="24" viewBox="0 0 24 24" fill="none" xmlns="http://www.w3.org/2000/svg">
<path fill-rule="evenodd" clip-rule="evenodd" d="M18.3486 4.23625C17.9581 3.84573 17.3249 3.84573 16.9344 4.23625L15.7922 5.37846L18.6206 8.20687L19.7628 7.06466C20.1533 6.67414 20.1533 6.04097 19.7628 5.65045L18.3486 4.23625ZM17.2064 9.62108L14.378 6.79268L6.14293 15.0278C5.9136 15.2571 5.74348 15.5387 5.64724 15.8485L4.51858 19.4805L8.15063 18.3519C8.46034 18.2556 8.74201 18.0855 8.97134 17.8562L17.2064 9.62108ZM15.5202 2.82204C16.6917 1.65047 18.5912 1.65046 19.7628 2.82204L21.177 4.23623C22.3486 5.4078 22.3486 7.3073 21.177 8.47887L10.3856 19.2704C9.92689 19.729 9.36356 20.0693 8.74413 20.2618L5.11208 21.3904C3.57401 21.8684 2.13072 20.4251 2.60867 18.887L3.73733 15.255C3.92981 14.6355 4.27005 14.0722 4.72871 13.6135L15.5202 2.82204Z" fill="black"/>
</svg>
