<svg width="24" height="24" viewBox="0 0 24 24" fill="none" xmlns="http://www.w3.org/2000/svg">
<path fill-rule="evenodd" clip-rule="evenodd" d="M12 4C7.58172 4 4 7.58172 4 12C4 16.4183 7.58172 20 12 20C16.4183 20 20 16.4183 20 12C20 7.58172 16.4183 4 12 4ZM2 12C2 6.47715 6.47715 2 12 2C17.5228 2 22 6.47715 22 12C22 17.5228 17.5228 22 12 22C6.47715 22 2 17.5228 2 12Z" fill="black"/>
<path fill-rule="evenodd" clip-rule="evenodd" d="M10.545 7.58132C10.474 6.73007 11.1458 6 12 6C12.8542 6 13.526 6.73007 13.455 7.58132L12.9965 13.083C12.9534 13.6013 12.5201 14 12 14C11.4799 14 11.0466 13.6013 11.0035 13.083L10.545 7.58132Z" fill="black"/>
<path d="M13.5 16.5C13.5 17.3284 12.8285 18 12 18C11.1716 18 10.5 17.3284 10.5 16.5C10.5 15.6715 11.1716 15 12 15C12.8285 15 13.5 15.6715 13.5 16.5Z" fill="black"/>
</svg>
