<svg width="24" height="24" viewBox="0 0 24 24" fill="none" xmlns="http://www.w3.org/2000/svg">
<path d="M18.6231 14.5018C19.3639 13.4611 19.7745 12.4724 19.9458 12C19.7325 11.412 19.1486 10.0237 18.0182 8.73107C16.7663 7.29962 14.8635 6 12 6C11.3865 6 10.8171 6.05965 10.2888 6.16747L8.66353 4.54221C9.64254 4.20287 10.7508 4 12 4C15.5656 4 17.983 5.65276 19.5237 7.41448C21.0443 9.1533 21.7289 11.0118 21.9081 11.5544C22.0045 11.8467 22.0045 12.1533 21.9081 12.4456C21.7513 12.9206 21.2071 14.4039 20.0539 15.9326L18.6231 14.5018Z" fill="black"/>
<path fill-rule="evenodd" clip-rule="evenodd" d="M4.47633 7.41448C2.9557 9.1533 2.27107 11.0118 2.09194 11.5544C1.99547 11.8467 1.99547 12.1533 2.09194 12.4456C2.27107 12.9882 2.9557 14.8467 4.47633 16.5855C6.01697 18.3472 8.43442 20 12 20C14.1066 20 15.8124 19.4231 17.1734 18.5876L20.2929 21.7071C20.6834 22.0976 21.3166 22.0976 21.7071 21.7071C22.0976 21.3166 22.0976 20.6834 21.7071 20.2929L3.70711 2.29289C3.31658 1.90237 2.68342 1.90237 2.29289 2.29289C1.90237 2.68342 1.90237 3.31658 2.29289 3.70711L5.22473 6.63894C4.95518 6.89162 4.70601 7.15184 4.47633 7.41448ZM5.98185 15.2689C7.23367 16.7004 9.13648 18 12 18C13.4777 18 14.6995 17.6539 15.7081 17.1223L13.2934 14.7076C12.9018 14.895 12.4631 15 12 15C10.3431 15 9 13.6569 9 12C9 11.5369 9.10495 11.0982 9.29237 10.7066L6.63953 8.05375C6.40251 8.27283 6.18371 8.50024 5.98184 8.73107C4.85144 10.0237 4.26752 11.412 4.05416 12C4.26752 12.588 4.85144 13.9763 5.98185 15.2689Z" fill="black"/>
</svg>
