<svg width="24" height="24" viewBox="0 0 24 24" fill="none" xmlns="http://www.w3.org/2000/svg">
<path fill-rule="evenodd" clip-rule="evenodd" d="M2 6C2 3.79086 3.79086 2 6 2H18C20.2091 2 22 3.79086 22 6V6.89023C22 7.84507 21.6584 8.76842 21.037 9.49339L16.4815 14.8082C16.1708 15.1707 16 15.6323 16 16.1098V19C16 20.6569 14.6569 22 13 22H11C9.34315 22 8 20.6569 8 19V16.1098C8 15.6323 7.82922 15.1707 7.51851 14.8082L2.96297 9.49339C2.34157 8.76842 2 7.84507 2 6.89023V6ZM6 4C4.89543 4 4 4.89543 4 6V6.89023C4 7.36765 4.17078 7.82932 4.48149 8.19181L9.03703 13.5066C9.65843 14.2316 10 15.1549 10 16.1098V19C10 19.5523 10.4477 20 11 20H13C13.5523 20 14 19.5523 14 19V16.1098C14 15.1549 14.3416 14.2316 14.963 13.5066L19.5185 8.19181C19.8292 7.82932 20 7.36765 20 6.89023V6C20 4.89543 19.1046 4 18 4H6Z" fill="black"/>
</svg>
