<svg width="24" height="24" viewBox="0 0 24 24" fill="none" xmlns="http://www.w3.org/2000/svg">
<path fill-rule="evenodd" clip-rule="evenodd" d="M6.12168 7.33862C4.63388 8.16518 4 9.14736 4 10C4 10.8526 4.63388 11.8348 6.12168 12.6614C7.57561 13.4691 9.65195 14 12 14C14.3481 14 16.4244 13.4691 17.8783 12.6614C19.3661 11.8348 20 10.8526 20 10C20 9.14736 19.3661 8.16518 17.8783 7.33862C16.4244 6.53089 14.3481 6 12 6C9.65195 6 7.57561 6.53089 6.12168 7.33862ZM20 13.6457C19.6453 13.9277 19.2578 14.1829 18.8496 14.4097C17.0462 15.4116 14.6225 16 12 16C9.37749 16 6.95383 15.4116 5.1504 14.4097C4.74218 14.1829 4.35466 13.9277 4 13.6457V14C4 15.0754 5.04037 16.3624 7.34856 17.2207C8.65694 17.7073 10.2575 18 12 18C13.7425 18 15.3431 17.7073 16.6514 17.2207C18.9596 16.3624 20 15.0754 20 14V13.6457ZM22 10V14C22 16.3917 19.8643 18.1598 17.3486 19.0953C15.7967 19.6724 13.9578 20 12 20C10.0422 20 8.20326 19.6724 6.65144 19.0953C4.13569 18.1598 2 16.3917 2 14V10C2 8.09122 3.38084 6.5734 5.1504 5.59031C6.95383 4.5884 9.37749 4 12 4C14.6225 4 17.0462 4.5884 18.8496 5.59031C20.6192 6.5734 22 8.09122 22 10Z" fill="black"/>
</svg>
