<svg width="24" height="24" viewBox="0 0 24 24" fill="none" xmlns="http://www.w3.org/2000/svg">
<path fill-rule="evenodd" clip-rule="evenodd" d="M20.3162 3.05138C20.7246 3.1875 21 3.56963 21 4.00006V14.0001C21 14.838 20.7355 15.8041 19.9505 16.4738C19.1792 17.1318 17.8203 18.0001 16 18.0001C14.572 18.0001 13.0564 17.4486 11.7512 16.9737C11.7201 16.9624 11.6891 16.9511 11.6583 16.9399C10.2341 16.422 9.038 16.0001 8 16.0001C7.02553 16.0001 6.22773 16.3891 5.65067 16.8088C5.36702 17.0151 5.14729 17.2215 5 17.3747V20.0001C5 20.5523 4.55228 21.0001 4 21.0001C3.44772 21.0001 3 20.5523 3 20.0001V7.00011C3 6.16215 3.2645 5.19602 4.04954 4.5263C4.82084 3.86829 6.17973 3.00014 7.99996 3.00006C9.428 3 10.9437 3.55152 12.2489 4.02646C12.28 4.03776 12.3109 4.04902 12.3418 4.06023C13.7659 4.57812 14.962 5.00006 16 5.00006C16.9745 5.00006 17.7723 4.61101 18.3493 4.19133C18.6359 3.98289 18.8573 3.77436 19.0046 3.62066C19.0778 3.54424 19.1315 3.48263 19.1647 3.44313C19.1812 3.42342 19.1925 3.40934 19.1985 3.40182L19.2031 3.39589C19.4619 3.05459 19.9095 2.91582 20.3162 3.05138ZM19 6.15497C18.2348 6.60873 17.2209 7.00006 16 7.00006C14.572 7.00006 13.0565 6.44858 11.7513 5.97366C11.7201 5.96233 11.6891 5.95105 11.6582 5.93981C10.2341 5.42193 9.03801 5.00002 8.00004 5.00006C6.83593 5.00012 5.92298 5.55695 5.34758 6.04783C5.14493 6.22072 5 6.53979 5 7.00011V14.8452C5.76524 14.3914 6.77907 14.0001 8 14.0001C9.42798 14.0001 10.9436 14.5515 12.2488 15.0265C12.2799 15.0378 12.3109 15.0491 12.3417 15.0603C13.7659 15.5781 14.962 16.0001 16 16.0001C17.1641 16.0001 18.0771 15.4432 18.6524 14.9523C18.8551 14.7794 19 14.4604 19 14.0001V6.15497Z" fill="black"/>
</svg>
