<svg width="24" height="24" viewBox="0 0 24 24" fill="none" xmlns="http://www.w3.org/2000/svg">
<path fill-rule="evenodd" clip-rule="evenodd" d="M21 4.00006C21 3.56963 20.7246 3.1875 20.3162 3.05138C19.9095 2.91582 19.4573 3.06052 19.1985 3.40182C19.1925 3.40934 19.1812 3.42342 19.1647 3.44313C19.1315 3.48263 19.0778 3.54424 19.0046 3.62066C18.8573 3.77436 18.6359 3.98289 18.3493 4.19133C17.7723 4.61101 16.9745 5.00006 16 5.00006C14.962 5.00006 13.7659 4.57812 12.3418 4.06023L12.2489 4.02646C10.9437 3.55152 9.428 3 7.99996 3.00006C6.17973 3.00014 4.82084 3.86829 4.04954 4.5263C3.2645 5.19602 3 6.16215 3 7.00011V20.0001C3 20.5523 3.44772 21.0001 4 21.0001C4.55228 21.0001 5 20.5523 5 20.0001V17.3747C5.14729 17.2215 5.36702 17.0151 5.65067 16.8088C6.22773 16.3891 7.02553 16.0001 8 16.0001C9.038 16.0001 10.2341 16.422 11.6583 16.9399L11.7512 16.9737C13.0564 17.4486 14.572 18.0001 16 18.0001C17.8203 18.0001 19.1792 17.1318 19.9505 16.4738C20.7355 15.8041 21 14.838 21 14.0001V4.00006Z" fill="black"/>
</svg>
