<svg width="24" height="24" viewBox="0 0 24 24" fill="none" xmlns="http://www.w3.org/2000/svg">
<path d="M12.9288 11.0711C13.3194 11.4616 13.9525 11.4616 14.343 11.0711L17.8786 7.53555C18.3603 7.05387 18.8419 6.40812 19.2677 5.76596L19.4706 5.7656C19.4665 5.82606 19.4571 5.88707 19.4422 5.94821C19.2146 6.87801 19.0032 7.98065 18.9999 8.878V9.65686C18.9999 10.2091 19.4476 10.6569 19.9999 10.6569C20.5492 10.6569 20.995 10.214 20.9999 9.66585L20.9999 3.99999C20.9999 3.44772 20.5522 3 19.9999 3L14.3431 3C13.7908 3 13.3431 3.44772 13.3431 4C13.3431 4.55094 13.7886 4.99781 14.339 4.99999L14.3431 5L15.1004 4.99999C16.0016 4.99999 17.1144 4.78703 18.0516 4.55765C18.1128 4.54268 18.1738 4.53336 18.2343 4.52927L18.234 4.73217C17.5918 5.15797 16.946 5.63966 16.4644 6.12134L12.9288 9.65687C12.5383 10.0474 12.5383 10.6806 12.9288 11.0711Z" fill="black"/>
<path d="M11.071 12.9289C10.6805 12.5384 10.0474 12.5384 9.65683 12.9289L6.1213 16.4644C5.63961 16.9461 5.15793 17.5919 4.73213 18.234L4.52932 18.2344C4.5334 18.1739 4.54272 18.1129 4.55768 18.0518C4.78523 17.122 4.99662 16.0193 4.99996 15.122L4.99996 14.3431C4.99996 13.7908 4.55225 13.3431 3.99996 13.3431C3.45068 13.3431 3.00483 13.786 3 14.3341L3 20C3 20.5523 3.44769 21 3.99996 21H9.65681C10.2091 21 10.6568 20.5523 10.6568 20C10.6568 19.4491 10.2113 19.0022 9.66087 19L9.65682 19L8.8995 19C7.99832 19 6.88549 19.213 5.94828 19.4423C5.8871 19.4573 5.82605 19.4666 5.76556 19.4707L5.76592 19.2678C6.40808 18.842 7.05383 18.3603 7.53551 17.8787L11.071 14.3431C11.4616 13.9526 11.4616 13.3194 11.071 12.9289Z" fill="black"/>
</svg>
