<svg width="12" height="12" viewBox="0 0 12 12" fill="none" xmlns="http://www.w3.org/2000/svg">
<path d="M5.64742 1.59734C5.91574 1.51845 6.2041 1.53132 6.46578 1.6364C6.7884 1.76608 6.98223 2.058 7.12301 2.32C7.27211 2.59752 7.43024 2.97899 7.62203 3.44011C7.75274 3.75437 7.77403 3.78572 7.79097 3.80339C7.81148 3.82473 7.83563 3.84225 7.86226 3.85515C7.88431 3.86581 7.92042 3.87678 8.25972 3.90398C8.75763 3.9439 9.16939 3.97683 9.47945 4.03289C9.77209 4.08581 10.109 4.17926 10.332 4.44597C10.5388 4.6933 10.642 5.01106 10.6201 5.33269C10.5963 5.6794 10.3784 5.9529 10.1728 6.16765C9.95491 6.39525 9.64103 6.66399 9.26168 6.98894C9.00503 7.2088 8.98133 7.23986 8.96969 7.2614C8.95563 7.28761 8.94638 7.3169 8.94234 7.34636C8.93908 7.37064 8.93996 7.40961 9.01851 7.73894C9.13437 8.22463 9.23089 8.62603 9.2734 8.93816C9.31351 9.23286 9.32828 9.58305 9.14351 9.87761C8.97219 10.1505 8.70211 10.3469 8.38961 10.4255C8.05235 10.5102 7.72391 10.3877 7.45601 10.2585C7.17229 10.1216 6.8206 9.90546 6.39449 9.64519C6.10407 9.4678 6.068 9.4552 6.0439 9.45086C6.01489 9.44568 5.98503 9.44569 5.95601 9.45086C5.93192 9.45519 5.89591 9.46777 5.60543 9.64519C5.17935 9.90544 4.82762 10.1216 4.5439 10.2585C4.27601 10.3877 3.94757 10.5102 3.61031 10.4255C3.29778 10.3469 3.02773 10.1505 2.8564 9.87761C2.67161 9.58305 2.6864 9.23287 2.72652 8.93816C2.76903 8.62603 2.86555 8.22462 2.9814 7.73894C3.05996 7.40963 3.06084 7.37064 3.05758 7.34636C3.05353 7.3169 3.04429 7.28761 3.03023 7.2614C3.01859 7.23985 2.99502 7.2089 2.73824 6.98894C2.35887 6.66397 2.04501 6.39526 1.82711 6.16765C1.62151 5.95289 1.40362 5.67942 1.37984 5.33269C1.35795 5.01106 1.46116 4.69331 1.66793 4.44597C1.89092 4.17928 2.22784 4.08581 2.52047 4.03289C2.83052 3.97683 3.2423 3.9439 3.74019 3.90398C4.0795 3.87678 4.11561 3.86581 4.13765 3.85515C4.16426 3.84225 4.18845 3.82472 4.20894 3.80339C4.22588 3.78571 4.24727 3.75415 4.37789 3.44011C4.56968 2.979 4.72781 2.59752 4.87691 2.32C5.01768 2.058 5.21152 1.76607 5.53414 1.6364L5.64742 1.59734Z" fill="#F3BC16"/>
</svg>
