<svg width="24" height="24" viewBox="0 0 24 24" fill="none" xmlns="http://www.w3.org/2000/svg">
<path fill-rule="evenodd" clip-rule="evenodd" d="M13.4458 4.93581C12.5455 4.44067 11.4545 4.44067 10.5542 4.93581L4.07504 8.49937L10.5542 12.0629C11.4545 12.5581 12.5455 12.5581 13.4458 12.0629L19.925 8.49937L13.4458 4.93581ZM9.59041 3.18337C11.0908 2.35815 12.9092 2.35815 14.4096 3.18337L22.4819 7.62315C22.8015 7.7989 23 8.13468 23 8.49937C23 8.86406 22.8015 9.19983 22.4819 9.37558L20 10.7406V16.9781C20 18.0591 19.5666 19.2127 18.5685 19.9229C16.7323 21.2293 14.457 21.9994 12 21.9994C9.54297 21.9994 7.26768 21.2293 5.43148 19.9229C4.43342 19.2127 4 18.0591 4 16.9781V10.7406L1.51808 9.37558C1.19853 9.19983 1 8.86406 1 8.49937C1 8.13468 1.19853 7.7989 1.51808 7.62315L9.59041 3.18337ZM6 11.8406V16.9781C6 17.5625 6.23208 18.0379 6.59095 18.2933C8.09354 19.3623 9.96467 19.9994 12 19.9994C14.0353 19.9994 15.9065 19.3623 17.409 18.2933C17.7679 18.0379 18 17.5625 18 16.9781V11.8406L14.4096 13.8154C12.9092 14.6406 11.0908 14.6406 9.59041 13.8154L6 11.8406Z" fill="black"/>
</svg>
