<svg width="12" height="12" viewBox="0 0 12 12" fill="none" xmlns="http://www.w3.org/2000/svg">
<path d="M6.23085 2.26195C6.79534 2.32779 7.21302 2.6883 7.58534 3.1555C7.95606 3.62083 8.35656 4.29016 8.85585 5.1223C9.38126 5.99799 9.80284 6.69824 10.0492 7.26781C10.2957 7.8378 10.4213 8.39701 10.1947 8.93871C10.1335 9.08506 10.0553 9.22398 9.96132 9.35179C9.6134 9.82465 9.069 10.0043 8.45351 10.0862C7.83828 10.1679 7.02072 10.1662 5.9994 10.1662C4.97807 10.1662 4.16049 10.168 3.5453 10.0862C2.92992 10.0043 2.38533 9.82463 2.03749 9.35179C1.94356 9.22404 1.86532 9.08497 1.80409 8.93871C1.57761 8.39709 1.70313 7.83771 1.9496 7.26781C2.19594 6.69821 2.61749 5.99808 3.14296 5.1223C3.64228 4.2901 4.04274 3.62087 4.41347 3.1555C4.78577 2.68827 5.20354 2.32791 5.76796 2.26195C5.9216 2.24405 6.07721 2.24408 6.23085 2.26195Z" fill="#3EA34F"/>
</svg>
