<svg width="24" height="24" viewBox="0 0 24 24" fill="none" xmlns="http://www.w3.org/2000/svg">
<path fill-rule="evenodd" clip-rule="evenodd" d="M17.7254 21.5H19.6476C21.533 21.5 23 19.9255 23 18.0605C23 17.1492 22.7118 16.1156 21.8839 15.4064C20.8422 14.5139 18.8756 13.2778 16 13.2778C15.5398 13.2778 15.9144 13.2207 15.5 13.2778C16.4829 13.7912 17.3006 14.619 18 15.5C19.5084 15.7851 19.963 16.3943 20.5827 16.9252C20.8303 17.1373 21 17.5251 21 18.0605C21 18.8901 20.3605 19.5 19.6476 19.5H18.4476C18.3445 20.225 18.0933 20.9022 17.7254 21.5ZM13.7234 11.4653C14.3853 11.8744 15.1623 12.1111 16 12.1111C18.4798 12.1111 20.4286 10.0369 20.4286 7.55556C20.4286 5.07418 18.4798 3 16 3C15.4178 3 14.8649 3.11432 14.3596 3.32138C14.7371 3.87032 15.0325 4.48013 15.2279 5.13309C15.4721 5.04658 15.7321 5 16 5C17.3073 5 18.4286 6.10957 18.4286 7.55556C18.4286 9.00154 17.3073 10.1111 16 10.1111C15.5932 10.1111 15.2045 10.0037 14.8619 9.81211C14.5687 10.422 14.1832 10.9792 13.7234 11.4653Z" fill="black"/>
<path fill-rule="evenodd" clip-rule="evenodd" d="M9 4C7.34315 4 6 5.34315 6 7C6 8.65685 7.34315 10 9 10C10.6569 10 12 8.65685 12 7C12 5.34315 10.6569 4 9 4ZM4 7C4 4.23858 6.23858 2 9 2C11.7614 2 14 4.23858 14 7C14 9.76142 11.7614 12 9 12C6.23858 12 4 9.76142 4 7ZM9 15C6.29558 15 4.47808 16.1129 3.53139 16.895C3.20058 17.1682 3 17.6414 3 18.2555C3 19.219 3.78103 20 4.74447 20H13.2555C14.219 20 15 19.219 15 18.2555C15 17.6413 14.7994 17.1682 14.4686 16.895C13.5219 16.1129 11.7044 15 9 15ZM2.25761 15.3531C3.45466 14.3642 5.70749 13 9 13C12.2925 13 14.5453 14.3642 15.7424 15.3531C16.6663 16.1163 17 17.2422 17 18.2555C17 20.3235 15.3235 22 13.2555 22H4.74447C2.67646 22 1 20.3235 1 18.2555C1 17.2422 1.33371 16.1163 2.25761 15.3531Z" fill="black"/>
</svg>
