<svg width="24" height="24" viewBox="0 0 24 24" fill="none" xmlns="http://www.w3.org/2000/svg">
<path fill-rule="evenodd" clip-rule="evenodd" d="M12 4C7.58172 4 4 7.58172 4 12C4 16.4183 7.58172 20 12 20C16.4183 20 20 16.4183 20 12C20 7.58172 16.4183 4 12 4ZM2 12C2 6.47715 6.47715 2 12 2C17.5228 2 22 6.47715 22 12C22 17.5228 17.5228 22 12 22C6.47715 22 2 17.5228 2 12Z" fill="black"/>
<path d="M13.5 16.5C13.5 17.3284 12.8285 18 12 18C11.1716 18 10.5 17.3284 10.5 16.5C10.5 15.6715 11.1716 15 12 15C12.8285 15 13.5 15.6715 13.5 16.5Z" fill="black"/>
<path fill-rule="evenodd" clip-rule="evenodd" d="M12 8C11.1716 8 10.5 8.67157 10.5 9.5C10.5 10.0523 10.0523 10.5 9.5 10.5C8.94772 10.5 8.5 10.0523 8.5 9.5C8.5 7.567 10.067 6 12 6C13.933 6 15.5 7.567 15.5 9.5C15.5 10.9907 14.5367 11.8763 13.8747 12.4059C13.7202 12.5294 13.5939 12.6257 13.4851 12.7086C13.3192 12.8351 13.1942 12.9304 13.0729 13.0436C13.0352 13.0788 13.0094 13.1059 12.9922 13.1253C12.9306 13.6184 12.5099 14 12 14C11.4477 14 11 13.5523 11 13C11 12.3096 11.4339 11.8376 11.7083 11.5814C11.8977 11.4047 12.16 11.2034 12.3805 11.0342C12.472 10.964 12.5564 10.8993 12.6253 10.8441C13.2133 10.3737 13.5 10.0093 13.5 9.5C13.5 8.67157 12.8284 8 12 8Z" fill="black"/>
</svg>
