<svg width="24" height="24" viewBox="0 0 24 24" fill="none" xmlns="http://www.w3.org/2000/svg">
<path fill-rule="evenodd" clip-rule="evenodd" d="M10.5858 4.82798C11.3668 4.04693 12.6332 4.04693 13.4142 4.82797L18.4142 9.82798C18.7893 10.203 19 10.7118 19 11.2422V16.9995C19 18.1041 18.1046 18.9995 17 18.9995H16V14.9995C16 12.7904 14.2091 10.9995 12 10.9995C9.79086 10.9995 8 12.7904 8 14.9995V18.9995H7C5.89543 18.9995 5 18.1041 5 16.9995V11.2422C5 10.7118 5.21071 10.203 5.58579 9.82798L10.5858 4.82798ZM10 18.9995V14.9995C10 13.895 10.8954 12.9995 12 12.9995C13.1046 12.9995 14 13.895 14 14.9995V18.9995H10ZM14.8284 3.41376C13.2663 1.85166 10.7337 1.85167 9.17157 3.41376L4.17157 8.41376C3.42143 9.16391 3 10.1813 3 11.2422V16.9995C3 19.2087 4.79086 20.9995 7 20.9995H17C19.2091 20.9995 21 19.2087 21 16.9995V11.2422C21 10.1813 20.5786 9.16391 19.8284 8.41376L14.8284 3.41376Z" fill="black"/>
</svg>
