<svg width="24" height="24" viewBox="0 0 24 24" fill="none" xmlns="http://www.w3.org/2000/svg">
<path fill-rule="evenodd" clip-rule="evenodd" d="M7 5C5.89543 5 5 5.89543 5 7V17C5 18.1046 5.89543 19 7 19H17C18.1046 19 19 18.1046 19 17V15C19 14.4477 19.4477 14 20 14C20.5523 14 21 14.4477 21 15V17C21 19.2091 19.2091 21 17 21H7C4.79086 21 3 19.2091 3 17V7C3 4.79086 4.79086 3 7 3H9C9.55228 3 10 3.44772 10 4C10 4.55229 9.55228 5 9 5H7Z" fill="black"/>
<path d="M10.9288 13.0711C11.3194 13.4616 11.9525 13.4616 12.3431 13.0711L17.8786 7.53555C18.3603 7.05387 18.8419 6.40812 19.2677 5.76596L19.4706 5.7656C19.4665 5.82606 19.4572 5.88707 19.4422 5.94821C19.2147 6.87801 19.0033 7.98065 18.9999 8.878L19 9.99097C19 10.5433 19.4478 10.991 20 10.991C20.5493 10.991 20.9952 10.5481 21 9.99996L20.9999 3.99999C20.9999 3.44772 20.5522 3 19.9999 3L14.0041 3C13.4518 3 13.0041 3.44772 13.0041 4C13.0041 4.55094 13.4496 4.99781 14 4.99999L14.0041 5L15.1004 4.99999C16.0016 4.99999 17.1144 4.78703 18.0516 4.55765C18.1128 4.54268 18.1738 4.53336 18.2343 4.52927L18.234 4.73217C17.5918 5.15797 16.9461 5.63966 16.4644 6.12134L10.9288 11.6569C10.5383 12.0474 10.5383 12.6806 10.9288 13.0711Z" fill="black"/>
</svg>
