<svg width="44" height="40" viewBox="0 0 44 40" fill="none" xmlns="http://www.w3.org/2000/svg">
<g clip-path="url(#clip0_9721_209214)">
<rect width="32" height="32" transform="translate(4 4)" fill="#FC3F1D"/>
<path d="M22.2564 29.616H25.5991V10.416H20.7369C15.8472 10.416 13.278 12.93 13.278 16.6318C13.278 19.5878 14.6869 21.3282 17.2008 23.1239L12.8359 29.616H16.4549L21.3171 22.3504L19.6319 21.2177C17.5876 19.8364 16.5931 18.759 16.5931 16.4385C16.5931 14.3941 18.0296 13.0129 20.7646 13.0129H22.2564V29.616Z" fill="white"/>
</g>
<defs>
<clipPath id="clip0_9721_209214">
<path d="M4 20C4 11.1634 11.1634 4 20 4V4C28.8366 4 36 11.1634 36 20V20C36 28.8366 28.8366 36 20 36V36C11.1634 36 4 28.8366 4 20V20Z" fill="white"/>
</clipPath>
</defs>
</svg>
