<svg width="24" height="24" viewBox="0 0 24 24" fill="none" xmlns="http://www.w3.org/2000/svg">
<path fill-rule="evenodd" clip-rule="evenodd" d="M15.6 3.79945C18.2369 1.82174 22 3.70327 22 6.99945V15.9994C22 19.2956 18.2369 21.1772 15.6 19.1994L12.6667 16.9994H11V18.9994C11 20.6563 9.65685 21.9995 8 21.9995C6.34315 21.9995 5 20.6563 5 18.9994V16.8734C3.27477 16.4294 2 14.8633 2 12.9994V9.99945C2 7.79031 3.79086 5.99945 6 5.99945H12.6667L15.6 3.79945ZM12 7.99945H6C4.89543 7.99945 4 8.89488 4 9.99945V12.9994C4 14.104 4.89543 14.9994 6 14.9994H12V7.99945ZM14 15.4994L16.8 17.5994C18.1185 18.5883 20 17.6475 20 15.9994V6.99945C20 5.35136 18.1185 4.4106 16.8 5.39945L14 7.49945V15.4994ZM7 16.9994V18.9994C7 19.5517 7.44772 19.9995 8 19.9995C8.55228 19.9995 9 19.5517 9 18.9994V16.9994H7Z" fill="black"/>
</svg>
