<svg width="24" height="24" viewBox="0 0 24 24" fill="none" xmlns="http://www.w3.org/2000/svg">
<path fill-rule="evenodd" clip-rule="evenodd" d="M11.9998 2C15.8657 2.00013 18.9998 5.13409 18.9998 9C18.9998 10.8698 19.3324 12.1935 19.824 13.2871C20.3267 14.4052 21.0078 15.3185 21.8064 16.4092C22.0289 16.7131 22.0617 17.1162 21.8914 17.4521C21.721 17.7881 21.3764 17.9999 20.9998 18H15.9998V18.0283C15.9998 20.2306 14.1998 21.9999 11.9998 22C9.79968 22 7.99977 20.2307 7.99977 18.0283V18H2.99977C2.6231 18 2.27858 17.7881 2.10817 17.4521C1.9378 17.1162 1.97057 16.7131 2.19313 16.4092C2.99178 15.3185 3.67285 14.4052 4.17555 13.2871C4.66713 12.1935 4.99977 10.8697 4.99977 9C4.99977 5.13401 8.13378 2 11.9998 2ZM9.99977 18.0283C9.99977 19.1081 10.8862 20 11.9998 20C13.1133 19.9999 13.9998 19.108 13.9998 18.0283V18H9.99977V18.0283ZM11.9998 4C9.23835 4 6.99977 6.23858 6.99977 9C6.99977 11.1301 6.61598 12.7356 5.99977 14.1064C5.68998 14.7956 5.32376 15.4168 4.93727 16H19.0623C18.6758 15.4168 18.3096 14.7956 17.9998 14.1064C17.3835 12.7355 16.9998 11.1301 16.9998 9C16.9998 6.23866 14.7611 4.00013 11.9998 4Z" fill="black"/>
</svg>
