<svg width="24" height="24" viewBox="0 0 24 24" fill="none" xmlns="http://www.w3.org/2000/svg">
<path d="M5 12C5 8.13401 8.13401 5 12 5C12.9111 5 13.6422 5.11318 14.3561 5.41915C15.078 5.72852 15.85 6.26424 16.7929 7.20711L17.4645 7.87863C17.9462 8.36031 18.5919 8.842 19.2341 9.2678L19.2344 9.4707C19.1739 9.46661 19.1129 9.45729 19.0517 9.44232C18.1145 9.21294 17.0017 8.99998 16.1005 8.99998L15.3432 8.99997L15.3391 8.99998C14.7887 9.00216 14.3432 9.44903 14.3432 9.99997C14.3432 10.5523 14.7909 11 15.3432 11L21 11C21.5523 11 22 10.5522 22 9.99998L22 4.33412C21.9952 3.78598 21.5493 3.34311 21 3.34311C20.4478 3.34311 20 3.79083 20 4.34311L20 5.12197C20.0034 6.01932 20.2148 7.12196 20.4423 8.05176C20.4573 8.1129 20.4666 8.17391 20.4707 8.23437L20.2679 8.23401C19.8421 7.59184 19.3604 6.9461 18.8787 6.46442L18.2071 5.79289C17.15 4.73576 16.172 4.02148 15.1439 3.58086C14.1078 3.13682 13.0889 3 12 3C7.02944 3 3 7.02944 3 12C3 16.9706 7.02944 21 12 21C14.4772 21 16.7223 19.9978 18.3487 18.3792C18.7402 17.9896 18.7417 17.3564 18.3521 16.965C17.9625 16.5735 17.3293 16.572 16.9379 16.9616C15.671 18.2225 13.9273 19 12 19C8.13401 19 5 15.866 5 12Z" fill="black"/>
</svg>
