<svg width="24" height="24" viewBox="0 0 24 24" fill="none" xmlns="http://www.w3.org/2000/svg">
<path d="M19 12C19 8.13401 15.8659 5 12 5C10.8197 5 9.56198 5.35219 7.70706 7.20711L7.03551 7.87867C6.55383 8.36035 5.90808 8.84203 5.26592 9.26783L5.26556 9.47073C5.32605 9.46665 5.3871 9.45733 5.44828 9.44236C6.38549 9.21298 7.49832 9.00001 8.3995 9.00001L9.15682 9L9.16087 9.00001C9.71129 9.00219 10.1568 9.44907 10.1568 10C10.1568 10.5523 9.7091 11 9.15681 11L3.49996 11C2.94769 11 2.5 10.5523 2.5 10L2.5 4.33415C2.50483 3.78601 2.95068 3.34315 3.49996 3.34315C4.05225 3.34315 4.49996 3.79086 4.49996 4.34315L4.49996 5.122C4.49662 6.01935 4.28523 7.12199 4.05768 8.0518C4.04272 8.11294 4.0334 8.17395 4.02932 8.2344L4.23213 8.23405C4.65793 7.59188 5.13961 6.94613 5.6213 6.46445L6.29285 5.79289C8.43793 3.64781 10.1802 3 12 3C16.9705 3 21 7.02944 21 12C21 16.9706 16.9705 21 12 21C9.52271 21 7.27762 19.9978 5.65124 18.3792C5.25978 17.9896 5.25828 17.3564 5.64787 16.965C6.03747 16.5735 6.67063 16.572 7.06208 16.9616C8.32896 18.2225 10.0727 19 12 19C15.8659 19 19 15.866 19 12Z" fill="black"/>
</svg>
