<svg width="24" height="24" viewBox="0 0 24 24" fill="none" xmlns="http://www.w3.org/2000/svg">
<path d="M13.3906 19.8804C13.9346 19.7851 14.4535 20.1489 14.5488 20.6929C14.6439 21.2367 14.2802 21.7548 13.7363 21.8501C13.1718 21.949 12.5914 22.0005 12 22.0005C11.4086 22.0005 10.8282 21.949 10.2637 21.8501C9.71985 21.7548 9.35607 21.2367 9.45117 20.6929C9.54647 20.1489 10.0654 19.7851 10.6094 19.8804C11.0603 19.9593 11.5249 20.0005 12 20.0005C12.4751 20.0005 12.9397 19.9593 13.3906 19.8804ZM4.05273 16.3442C4.50472 16.0273 5.12809 16.1366 5.44531 16.5884C5.98124 17.3524 6.64812 18.0192 7.41211 18.5552C7.86387 18.8724 7.97323 19.4958 7.65625 19.9478C7.33908 20.3999 6.71483 20.5091 6.2627 20.1919C5.309 19.5228 4.47768 18.6915 3.80859 17.7378C3.49143 17.2857 3.6006 16.6614 4.05273 16.3442ZM18.5547 16.5884C18.8719 16.1366 19.4953 16.0273 19.9473 16.3442C20.3994 16.6614 20.5086 17.2857 20.1914 17.7378C19.5223 18.6915 18.691 19.5228 17.7373 20.1919C17.2852 20.5091 16.6609 20.3999 16.3438 19.9478C16.0268 19.4958 16.1361 18.8724 16.5879 18.5552C17.3519 18.0192 18.0188 17.3524 18.5547 16.5884ZM2 12.0005C2 11.4091 2.05149 10.8287 2.15039 10.2642C2.24573 9.72033 2.76377 9.35656 3.30762 9.45166C3.85162 9.54696 4.21541 10.0659 4.12012 10.6099C4.04115 11.0608 4 11.5254 4 12.0005C4 12.4755 4.04115 12.9402 4.12012 13.3911C4.21541 13.9351 3.85162 14.454 3.30762 14.5493C2.76377 14.6444 2.24573 14.2806 2.15039 13.7368C2.05149 13.1723 2 12.5919 2 12.0005ZM20 12.0005C20 11.5254 19.9589 11.0608 19.8799 10.6099C19.7846 10.0659 20.1484 9.54696 20.6924 9.45166C21.2362 9.35656 21.7543 9.72033 21.8496 10.2642C21.9485 10.8287 22 11.4091 22 12.0005C22 12.5919 21.9485 13.1723 21.8496 13.7368C21.7543 14.2806 21.2362 14.6444 20.6924 14.5493C20.1484 14.454 19.7846 13.9351 19.8799 13.3911C19.9589 12.9402 20 12.4755 20 12.0005ZM6.2627 3.80908C6.71483 3.49192 7.33908 3.60109 7.65625 4.05322C7.97323 4.50521 7.86387 5.12857 7.41211 5.4458C6.64812 5.98173 5.98124 6.64861 5.44531 7.4126C5.12809 7.86436 4.50472 7.97371 4.05273 7.65674C3.6006 7.33957 3.49143 6.71532 3.80859 6.26318C4.47768 5.30949 5.309 4.47817 6.2627 3.80908ZM16.3438 4.05322C16.6609 3.60109 17.2852 3.49192 17.7373 3.80908C18.691 4.47817 19.5223 5.30949 20.1914 6.26318C20.5086 6.71532 20.3994 7.33957 19.9473 7.65674C19.4953 7.97371 18.8719 7.86436 18.5547 7.4126C18.0188 6.64861 17.3519 5.98173 16.5879 5.4458C16.1361 5.12857 16.0268 4.50521 16.3438 4.05322ZM12 2.00049C12.5914 2.00049 13.1718 2.05198 13.7363 2.15088C14.2802 2.24622 14.6439 2.76426 14.5488 3.30811C14.4535 3.85211 13.9346 4.2159 13.3906 4.12061C12.9397 4.04164 12.4751 4.00049 12 4.00049C11.5249 4.00049 11.0603 4.04164 10.6094 4.12061C10.0654 4.2159 9.54647 3.85211 9.45117 3.30811C9.35607 2.76426 9.71985 2.24622 10.2637 2.15088C10.8282 2.05198 11.4086 2.00049 12 2.00049Z" fill="black"/>
</svg>
