<svg width="24" height="24" viewBox="0 0 24 24" fill="none" xmlns="http://www.w3.org/2000/svg">
<path fill-rule="evenodd" clip-rule="evenodd" d="M6 11C6.55228 11 7 11.4477 7 12V15H10C10.5523 15 11 15.4477 11 16C11 16.5523 10.5523 17 10 17H7V20C7 20.5523 6.55228 21 6 21C5.44772 21 5 20.5523 5 20V17H2C1.44772 17 1 16.5523 1 16C1 15.4477 1.44772 15 2 15H5V12C5 11.4477 5.44772 11 6 11Z" fill="black"/>
<path fill-rule="evenodd" clip-rule="evenodd" d="M12 3C12.5523 3 13 3.44772 13 4V7H16C16.5523 7 17 7.44772 17 8C17 8.55228 16.5523 9 16 9H13V12C13 12.5523 12.5523 13 12 13C11.4477 13 11 12.5523 11 12V9H8C7.44772 9 7 8.55228 7 8C7 7.44772 7.44772 7 8 7H11V4C11 3.44772 11.4477 3 12 3Z" fill="black"/>
<path fill-rule="evenodd" clip-rule="evenodd" d="M18 11C18.5523 11 19 11.4477 19 12V15H22C22.5523 15 23 15.4477 23 16C23 16.5523 22.5523 17 22 17H19V20C19 20.5523 18.5523 21 18 21C17.4477 21 17 20.5523 17 20V17H14C13.4477 17 13 16.5523 13 16C13 15.4477 13.4477 15 14 15H17V12C17 11.4477 17.4477 11 18 11Z" fill="black"/>
</svg>
