<svg width="24" height="24" viewBox="0 0 24 24" fill="none" xmlns="http://www.w3.org/2000/svg">
<g clip-path="url(#clip0_9715_177245)">
<path fill-rule="evenodd" clip-rule="evenodd" d="M5 7C5.55228 7 6 7.44772 6 8V11H9C9.55229 11 10 11.4477 10 12C10 12.5523 9.55229 13 9 13H6V16C6 16.5523 5.55228 17 5 17C4.44772 17 4 16.5523 4 16V13H1C0.447715 13 0 12.5523 0 12C0 11.4477 0.447715 11 1 11H4V8C4 7.44772 4.44772 7 5 7Z" fill="black"/>
<path fill-rule="evenodd" clip-rule="evenodd" d="M12 0C12.5523 0 13 0.447715 13 1V4H16C16.5523 4 17 4.44772 17 5C17 5.55228 16.5523 6 16 6H13V9C13 9.55229 12.5523 10 12 10C11.4477 10 11 9.55229 11 9V6H8C7.44772 6 7 5.55228 7 5C7 4.44772 7.44772 4 8 4H11V1C11 0.447715 11.4477 0 12 0Z" fill="black"/>
<path fill-rule="evenodd" clip-rule="evenodd" d="M19 7C19.5523 7 20 7.44772 20 8V11H23C23.5523 11 24 11.4477 24 12C24 12.5523 23.5523 13 23 13H20V16C20 16.5523 19.5523 17 19 17C18.4477 17 18 16.5523 18 16V13H15C14.4477 13 14 12.5523 14 12C14 11.4477 14.4477 11 15 11H18V8C18 7.44772 18.4477 7 19 7Z" fill="black"/>
<path fill-rule="evenodd" clip-rule="evenodd" d="M12 14C12.5523 14 13 14.4477 13 15V18H16C16.5523 18 17 18.4477 17 19C17 19.5523 16.5523 20 16 20H13V23C13 23.5523 12.5523 24 12 24C11.4477 24 11 23.5523 11 23V20H8C7.44772 20 7 19.5523 7 19C7 18.4477 7.44772 18 8 18H11V15C11 14.4477 11.4477 14 12 14Z" fill="black"/>
</g>
<defs>
<clipPath id="clip0_9715_177245">
<rect width="24" height="24" fill="white"/>
</clipPath>
</defs>
</svg>
