<svg width="24" height="24" viewBox="0 0 24 24" fill="none" xmlns="http://www.w3.org/2000/svg">
<path fill-rule="evenodd" clip-rule="evenodd" d="M12 5C12.5523 5 13 5.44772 13 6V9H16C16.5523 9 17 9.44772 17 10C17 10.5523 16.5523 11 16 11H13V14C13 14.5523 12.5523 15 12 15C11.4477 15 11 14.5523 11 14V11H8C7.44772 11 7 10.5523 7 10C7 9.44772 7.44772 9 8 9H11V6C11 5.44772 11.4477 5 12 5Z" fill="black"/>
<path fill-rule="evenodd" clip-rule="evenodd" d="M7 18C7 17.4477 7.44772 17 8 17H16C16.5523 17 17 17.4477 17 18C17 18.5523 16.5523 19 16 19H8C7.44772 19 7 18.5523 7 18Z" fill="black"/>
</svg>
