<svg width="24" height="24" viewBox="0 0 24 24" fill="none" xmlns="http://www.w3.org/2000/svg">
<path fill-rule="evenodd" clip-rule="evenodd" d="M8 11C8.55228 11 9 11.4477 9 12V15H12C12.5523 15 13 15.4477 13 16C13 16.5523 12.5523 17 12 17H9V20C9 20.5523 8.55228 21 8 21C7.44772 21 7 20.5523 7 20V17H4C3.44772 17 3 16.5523 3 16C3 15.4477 3.44772 15 4 15H7V12C7 11.4477 7.44772 11 8 11Z" fill="black"/>
<path fill-rule="evenodd" clip-rule="evenodd" d="M16 3C16.5523 3 17 3.44772 17 4V7H20C20.5523 7 21 7.44772 21 8C21 8.55228 20.5523 9 20 9H17V12C17 12.5523 16.5523 13 16 13C15.4477 13 15 12.5523 15 12V9H12C11.4477 9 11 8.55228 11 8C11 7.44772 11.4477 7 12 7H15V4C15 3.44772 15.4477 3 16 3Z" fill="black"/>
</svg>
