<svg width="24" height="24" viewBox="0 0 24 24" fill="none" xmlns="http://www.w3.org/2000/svg">
<path fill-rule="evenodd" clip-rule="evenodd" d="M11.9992 8C9.79009 8 7.99923 9.79086 7.99923 12C7.99923 14.2091 9.79009 16 11.9992 16C14.2084 16 15.9992 14.2091 15.9992 12C15.9992 9.79086 14.2084 8 11.9992 8ZM9.99923 12C9.99923 10.8954 10.8947 10 11.9992 10C13.1038 10 13.9992 10.8954 13.9992 12C13.9992 13.1046 13.1038 14 11.9992 14C10.8947 14 9.99923 13.1046 9.99923 12Z" fill="black"/>
<path fill-rule="evenodd" clip-rule="evenodd" d="M8.37747 3.71304C8.60347 2.74122 9.53678 2 10.5346 2H13.4284C14.4261 2 15.3595 2.74107 15.5855 3.71298L15.818 4.71245C15.8795 4.97689 16.1145 5.11278 16.3744 5.0338L17.3561 4.73534C18.3108 4.44517 19.4194 4.88284 19.9183 5.74689L21.3652 8.25303C21.8642 9.11717 21.6888 10.2961 20.9603 10.9776L20.2109 11.6787C20.0126 11.8642 20.0125 12.1357 20.2108 12.3212L20.9603 13.0223C21.6888 13.7039 21.8642 14.8829 21.3652 15.747L19.9183 18.2531C19.4194 19.1171 18.3109 19.5548 17.3563 19.2647L16.3745 18.9662C16.1146 18.8872 15.8795 19.023 15.818 19.2874L15.5856 20.2869C15.3596 21.2589 14.4261 22 13.4284 22H10.5346C9.53684 22 8.60349 21.2589 8.37747 20.287L8.14505 19.2875C8.08354 19.023 7.84848 18.8872 7.58864 18.9662L6.60687 19.2647C5.65231 19.5547 4.54367 19.1171 4.04476 18.2532L2.59783 15.747C2.09892 14.8829 2.27411 13.704 3.00274 13.0224L3.7521 12.3213C3.9504 12.1358 3.95047 11.8643 3.75217 11.6788L3.00284 10.9777C2.27418 10.2961 2.09896 9.1171 2.5978 8.25307L4.04472 5.74693C4.5436 4.88286 5.65218 4.44512 6.60683 4.73533L7.58859 5.03379C7.84845 5.11277 8.08353 4.97706 8.14505 4.71252L8.37747 3.71304ZM10.0931 5.16552L10.3255 4.16606C10.3408 4.10008 10.4668 4 10.5346 4H13.4284C13.4962 4 13.6222 4.10013 13.6375 4.16593L13.87 5.16547C14.1936 6.55693 15.5893 7.36278 16.9561 6.94734L17.81 6.68773C17.8928 6.66257 17.9816 6.66617 18.0621 6.69792C18.1425 6.72968 18.2099 6.78775 18.2531 6.86266L19.6332 9.25307C19.667 9.31165 19.6434 9.47088 19.594 9.51713L18.8446 10.2182C17.8014 11.1941 17.8013 12.8059 18.8445 13.7817L19.5939 14.4828C19.6434 14.5291 19.667 14.6883 19.6332 14.7468L18.1863 17.253C18.1524 17.3116 18.0027 17.3708 17.9377 17.3511L16.9562 17.0527C15.5894 16.6373 14.1936 17.443 13.87 18.8344L13.6375 19.8339C13.6222 19.8997 13.4963 20 13.4284 20H10.5346C10.4668 20 10.3408 19.8999 10.3255 19.834L10.0931 18.8345C9.7695 17.4431 8.37376 16.6372 7.00696 17.0526L6.15297 17.3123C6.07024 17.3374 5.98142 17.3338 5.90099 17.3021C5.82053 17.2703 5.75319 17.2123 5.70994 17.1373L4.32982 14.7468C4.296 14.6883 4.31976 14.529 4.36914 14.4828L5.1185 13.7817C5.43233 13.4881 5.65175 13.137 5.77674 12.763C5.94223 12.2677 5.94223 11.7323 5.77675 11.2371C5.65174 10.863 5.4323 10.5118 5.11844 10.2182L4.36905 9.51708C4.31969 9.47091 4.29597 9.31175 4.32985 9.25307L5.71001 6.86255C5.75324 6.78769 5.82053 6.72966 5.90093 6.69791C5.98135 6.66615 6.07015 6.66256 6.15287 6.6877L7.00691 6.94733C8.37372 7.36282 9.7695 6.55697 10.0931 5.16552Z" fill="black"/>
</svg>
