<svg width="24" height="24" viewBox="0 0 24 24" fill="none" xmlns="http://www.w3.org/2000/svg">
<path fill-rule="evenodd" clip-rule="evenodd" d="M7 6C7 3.79086 8.79086 2 11 2H13C15.2091 2 17 3.79086 17 6H21C21.5523 6 22 6.44772 22 7C22 7.55228 21.5523 8 21 8H20V18C20 20.2091 18.2091 22 16 22H8C5.79086 22 4 20.2091 4 18V8H3C2.44772 8 2 7.55228 2 7C2 6.44772 2.44772 6 3 6H7ZM6 8V18C6 19.1046 6.89543 20 8 20H16C17.1046 20 18 19.1046 18 18V8H6ZM15 6C15 4.89543 14.1046 4 13 4H11C9.89543 4 9 4.89543 9 6H15Z" fill="black"/>
</svg>
